<svg xmlns="http://www.w3.org/2000/svg" xml:space="preserve" width="108" height="108" viewBox="0 0 28.575 28.575"><path d="M61.6632 121.1747c-.8638.0144-1.8113-.007-2.1056-.047s-.8746-.1589-1.2895-.2638-1.0533-.3136-1.4185-.4637-.9225-.4113-1.2385-.5803-.8935-.5178-1.2832-.7752l-.7087-.4679v-1.292c0-1.0125.0208-1.28.0958-1.236.0527.0307.3026.1997.5554.3754s.7607.4992 1.1286.719c.368.2196.9544.5312 1.3031.6923.3488.1611.914.3814 1.256.4894s.9276.2572 1.3015.3315c.5024.0998 1.05.135 2.0971.1346 1.0174-.0003 1.6226-.038 2.145-.134.4003-.0736 1.0781-.251 1.5062-.3942s1.0285-.3864 1.3343-.5404c.3057-.154.8544-.4646 1.2193-.6903s.877-.5676 1.1381-.7598l.4748-.3495-.021 1.3213-.0209 1.3214-.7278.4863c-.4002.2674-1.176.704-1.7237.9701s-1.2276.559-1.5109.6506c-.2832.0917-.8348.2363-1.2257.3214-.5493.1195-1.0676.1606-2.2812.1808zm4.29-7.5479h-1.0725v-2.2982h-2.145v-1.9875l1.0533-.0213 1.0534-.0213.0212-1.13.0212-1.13h2.141v2.2983h2.145v1.9918h-2.145v2.2982zm-9.7293-2.3749h-2.6047v-1.9152h5.2094v1.9152z" style="fill:#344795;stroke-width:.452413" transform="translate(-47.0692 -99.8373)"/></svg>